<?xml version="1.0" encoding="UTF-8"?><svg id="Shape" xmlns="http://www.w3.org/2000/svg" viewBox="0 0 820 266"><defs><style>.cls-1{fill:#000;stroke-width:0px;}</style></defs><path class="cls-1" d="M311.85,53.47v58.02c4.57-6.05,9.86-10.66,15.83-13.84,5.98-3.17,12.96-4.76,20.93-4.76s15.43,1.48,21.48,4.43c6.05,2.95,11.07,7.09,15.06,12.4,3.99,5.32,6.98,11.7,8.97,19.16,1.99,7.46,2.99,15.69,2.99,24.69,0,9.45-1.18,17.98-3.54,25.58-2.36,7.61-5.76,14.06-10.19,19.38-4.43,5.31-9.74,9.41-15.94,12.29-6.2,2.88-13.14,4.32-20.82,4.32-6.94,0-13.36-1.33-19.27-3.99-5.91-2.66-11.29-7.09-16.17-13.29v13.73h-24.36V53.47h25.03ZM311.63,157.78c.14,7.38,1.07,13.44,2.77,18.16,1.7,4.73,3.91,8.49,6.64,11.29,2.73,2.81,5.87,4.73,9.41,5.76,3.54,1.03,7.23,1.55,11.07,1.55,4.13,0,7.97-.74,11.52-2.21,3.54-1.47,6.64-3.8,9.3-6.98,2.66-3.17,4.72-7.34,6.2-12.51,1.47-5.17,2.22-11.52,2.22-19.05s-.78-13.4-2.33-18.49c-1.55-5.09-3.58-9.22-6.09-12.4-2.51-3.17-5.5-5.5-8.97-6.98-3.47-1.47-7.05-2.21-10.74-2.21-5.46,0-10.15.89-14.06,2.66-3.91,1.77-7.12,4.28-9.63,7.53-2.51,3.25-4.36,7.12-5.54,11.63-1.18,4.51-1.77,9.49-1.77,14.95v7.31Z"/><path class="cls-1" d="M491.68,196.53c-4.28,5.17-9.52,9.45-15.72,12.85-6.2,3.39-13.73,5.09-22.59,5.09-5.46,0-10.56-.7-15.28-2.1-4.73-1.4-8.82-3.51-12.29-6.31-3.47-2.8-6.2-6.39-8.19-10.74-1.99-4.35-2.99-9.49-2.99-15.39,0-7.97,1.77-14.43,5.31-19.38,3.54-4.94,8.16-8.82,13.84-11.63,5.68-2.8,12.07-4.76,19.16-5.87,7.09-1.11,14.17-1.81,21.26-2.1l17.05-.89v-4.87c0-8.71-2.1-14.73-6.31-18.05-4.21-3.32-9.71-4.98-16.5-4.98-7.83,0-13.62,1.33-17.38,3.99-3.76,2.66-6.24,6.5-7.42,11.52l-23.03-2.44c2.07-11.22,7.16-19.41,15.28-24.58,8.12-5.17,19.27-7.75,33.44-7.75,9.15,0,16.72,1.18,22.7,3.54,5.98,2.36,10.74,5.61,14.28,9.75,3.54,4.14,6.01,9.04,7.42,14.73,1.4,5.69,2.1,11.92,2.1,18.71v71.97h-24.14v-15.06ZM475.07,157.78c-7.53.44-13.62,1.26-18.27,2.44-4.65,1.18-8.23,2.7-10.74,4.54-2.51,1.85-4.17,3.99-4.98,6.42-.81,2.44-1.22,5.06-1.22,7.86,0,5.02,1.58,8.93,4.76,11.74,3.17,2.81,7.86,4.21,14.06,4.21,11.07,0,19.27-2.8,24.58-8.41,5.31-5.61,7.97-13.21,7.97-22.81v-6.64l-16.17.66Z"/><path class="cls-1" d="M567.86,96.43v17.05c3.99-6.05,8.78-10.7,14.39-13.95,5.61-3.25,11.59-4.87,17.94-4.87,2.51,0,4.61.08,6.31.22,1.7.15,3.36.37,4.98.66l-2.88,23.03c-1.63-.44-3.4-.74-5.32-.89-1.92-.14-3.91-.22-5.98-.22-4.73,0-8.86.78-12.4,2.32-3.54,1.55-6.53,3.58-8.97,6.09-2.44,2.51-4.28,5.35-5.54,8.53-1.26,3.18-1.88,6.39-1.88,9.63v67.55h-25.03v-115.16h24.36Z"/><path class="cls-1" d="M623.67,116.36v-19.93h18.16v-31h25.03v31h28.57v19.93h-28.57v60.24c0,5.91,1.22,10.19,3.66,12.84,2.44,2.66,6.01,3.99,10.74,3.99,2.51,0,4.91-.15,7.2-.44,2.29-.29,4.54-.81,6.75-1.55l3.76,18.82c-7.09,2.36-14.77,3.54-23.03,3.54-12.7,0-21.56-3.28-26.58-9.85-5.02-6.57-7.53-16.42-7.53-29.57v-58.02h-18.16Z"/><path class="cls-1" d="M815.45,177.49c-2.07,11.96-7.16,21.23-15.28,27.79-8.12,6.57-19.79,9.85-34.99,9.85-18.31,0-32.22-5.28-41.75-15.83-9.52-10.56-14.29-25.43-14.29-44.62,0-9.89,1.36-18.68,4.1-26.36,2.73-7.67,6.57-14.14,11.52-19.38,4.94-5.24,10.85-9.22,17.72-11.96,6.87-2.73,14.43-4.1,22.7-4.1,8.86,0,16.53,1.37,23.03,4.1,6.49,2.73,11.88,6.57,16.17,11.52,4.28,4.95,7.45,10.85,9.52,17.72,2.07,6.87,3.1,14.51,3.1,22.92v11.07h-82.61c.29,10.48,2.95,18.97,7.97,25.47,5.02,6.5,12.62,9.75,22.81,9.75,7.97,0,13.95-1.55,17.94-4.65,3.99-3.1,6.64-7.53,7.97-13.29h24.36ZM792.42,142.72c0-9.45-2.22-16.9-6.64-22.37-4.43-5.46-11.52-8.19-21.26-8.19s-16.39,2.77-21.26,8.31c-4.87,5.54-7.68,12.96-8.41,22.26h57.58Z"/><path class="cls-1" d="M176.81,136.33c-2.73-4.2-7.57-6.71-12.95-6.71h-38.78l45.49-102.78c2.05-4.64,1.63-9.77-1.17-14.07-3.22-4.94-8.93-7.9-15.28-7.9h-77.18c-11.91,0-22.44,6.39-26.82,16.29L7.5,117.46c-1.8,4.06-1.43,8.54,1.02,12.3,2.8,4.29,7.75,6.86,13.25,6.86h37.69L12.95,241.7c-1.84,4.17-1.46,8.76,1.05,12.62,2.87,4.41,7.96,7.05,13.62,7.05h78.79c13,0,24.48-6.97,29.25-17.75l42.16-95.25c1.76-3.97,1.39-8.36-1-12.04ZM21.77,129.62c-3.12,0-5.89-1.38-7.39-3.68-.66-1.02-1.61-3.11-.49-5.65L56.52,24c3.21-7.25,11.42-12.12,20.42-12.12h55.13c3.12,0,5.89,1.38,7.39,3.68.66,1.02,1.61,3.11.49,5.65l-42.36,95.7c-3.37,7.61-11.97,12.72-21.4,12.72H21.77ZM171.41,145.53l-42.16,95.25c-3.6,8.12-12.78,13.58-22.85,13.58h-53.86c-3,0-5.65-1.32-7.08-3.52-.63-.97-1.54-2.97-.46-5.39l44.16-99.76c2.4-5.42,8.56-9.07,15.34-9.07h59.37c3,0,5.65,1.32,7.08,3.52.63.97,1.54,2.97.46,5.39Z"/></svg>